<?xml version="1.0" ?><!DOCTYPE svg  PUBLIC '-//W3C//DTD SVG 1.1//EN'  'http://www.w3.org/Graphics/SVG/1.1/DTD/svg11.dtd'><svg enable-background="new 0 0 128 128" id="Слой_1" version="1.1" viewBox="0 0 128 128" xml:space="preserve" xmlns="http://www.w3.org/2000/svg" xmlns:xlink="http://www.w3.org/1999/xlink"><g><g><path d="M114.3,106.6l10.4-59.7c1.8-10.5-4.9-20.6-15.3-22.9l-82-18.6C14,2.3,1.6,13.4,3.1,27.1l8.8,78.3    c1.1,10.1,9.7,17.8,19.9,17.8h51.7h11.1C104.4,123.1,112.7,116.1,114.3,106.6z" fill="#F2EDAA"/></g></g><g><g><path d="M102.8,52.8C102.8,31.4,85.4,14,64,14S25.2,31.4,25.2,52.8c0,0.7,0,1.4,0.1,2    c1.1,21.8,18.8,47.7,36.2,58.5c0.8,0.5,1.7,0.7,2.6,0.7l0,0c0.9,0,1.7-0.2,2.5-0.7c17.4-10.7,35.1-36.7,36.2-58.5    C102.8,54.1,102.8,53.5,102.8,52.8z" fill="#C58F7E"/></g><g opacity="0.2"><path d="M64,14c-1.1,0-2.3,0.1-3.4,0.2C80.4,15.9,96,32.5,96,52.8c0,0.7,0,1.3-0.1,2c-1,21.4-18.2,46.9-35.3,57.9    c0.3,0.2,0.6,0.4,0.9,0.6c0.8,0.5,1.7,0.7,2.6,0.7c0.9,0,1.7-0.2,2.5-0.7c17.4-10.7,35.1-36.7,36.2-58.5c0-0.7,0.1-1.3,0.1-2    C102.8,31.4,85.4,14,64,14z" fill="#62345B"/></g><g><path d="M64,115.2c-1.1,0-2.3-0.3-3.2-0.9C44,104,25.1,78.3,24,54.9c0-0.7-0.1-1.4-0.1-2.1c0-22.1,18-40,40-40    s40,18,40,40c0,0.7,0,1.4-0.1,2.1c-1.1,23.4-20,49.1-36.8,59.5C66.3,114.9,65.2,115.2,64,115.2C64.1,115.2,64,115.2,64,115.2z     M64,15.2c-20.7,0-37.5,16.8-37.5,37.5c0,0.7,0,1.3,0.1,2c1.1,21.9,19.3,47.4,35.6,57.5c0.5,0.3,1.2,0.5,1.9,0.5v1.2l0-1.3    c0.7,0,1.3-0.2,1.8-0.5c16.3-10.1,34.5-35.6,35.6-57.5c0-0.7,0.1-1.3,0.1-2C101.5,32.1,84.7,15.2,64,15.2z" fill="#62345B"/></g><g><circle cx="64" cy="52.8" fill="#EBDEEE" r="30.6"/></g><g><path d="M71.7,71.8H56.3c-1,0-1.9-0.8-2-1.8l-2.8-28.2h25l-2.8,28.2C73.6,71,72.7,71.8,71.7,71.8z" fill="#FFFFFF"/></g><g><path d="M71.7,73H56.3c-1.7,0-3.1-1.3-3.2-2.9l-2.8-28.2c0-0.4,0.1-0.7,0.3-1s0.6-0.4,0.9-0.4h25    c0.4,0,0.7,0.1,0.9,0.4c0.2,0.3,0.4,0.6,0.3,1l-2.8,28.2C74.8,71.7,73.4,73,71.7,73z M52.9,43l2.7,26.8c0,0.4,0.4,0.7,0.7,0.7    h15.4c0.4,0,0.7-0.3,0.7-0.7L75.1,43H52.9z" fill="#62345B"/></g><g><path d="M76.5,37.8h-25c-1.1,0-2,0.9-2,2v0c0,1.1,0.9,2,2,2h25c1.1,0,2-0.9,2-2v0C78.5,38.6,77.6,37.8,76.5,37.8z" fill="#ADA2B5"/></g><g><path d="M76.5,43h-25c-1.8,0-3.2-1.5-3.2-3.2s1.5-3.2,3.2-3.2h25c1.8,0,3.2,1.5,3.2,3.2S78.3,43,76.5,43z M51.5,39    c-0.4,0-0.8,0.3-0.8,0.8s0.3,0.8,0.8,0.8h25c0.4,0,0.8-0.3,0.8-0.8S76.9,39,76.5,39H51.5z" fill="#62345B"/></g><g><path d="M72.9,33.8H55.1c-0.9,0-1.7,0.6-1.9,1.5l-0.6,2.5h23l-0.6-2.5C74.7,34.4,73.9,33.8,72.9,33.8z" fill="#ADA2B5"/></g><g><path d="M75.5,39h-23c-0.4,0-0.7-0.2-1-0.5c-0.2-0.3-0.3-0.7-0.2-1.1l0.6-2.5c0.4-1.4,1.7-2.5,3.2-2.5h17.9    c1.5,0,2.8,1,3.2,2.5l0.6,2.5c0.1,0.4,0,0.8-0.2,1.1C76.2,38.8,75.9,39,75.5,39z M54.1,36.5h19.8l-0.2-0.9    c-0.1-0.3-0.4-0.6-0.7-0.6H55.1c-0.3,0-0.6,0.2-0.7,0.6L54.1,36.5z" fill="#62345B"/></g><g><circle cx="64" cy="56.8" fill="#92D3CB" r="6"/></g><g><path d="M64,64c-4,0-7.2-3.3-7.2-7.2s3.3-7.2,7.2-7.2c4,0,7.2,3.3,7.2,7.2S68,64,64,64z M64,52    c-2.6,0-4.8,2.1-4.8,4.8s2.1,4.8,4.8,4.8s4.8-2.1,4.8-4.8S66.6,52,64,52z" fill="#62345B"/></g><g><path d="M64,84.7c-17.6,0-31.9-14.3-31.9-31.9S46.4,20.9,64,20.9c17.6,0,31.9,14.3,31.9,31.9S81.6,84.7,64,84.7z     M64,23.4c-16.2,0-29.4,13.2-29.4,29.4S47.8,82.2,64,82.2S93.4,69,93.4,52.8S80.2,23.4,64,23.4z" fill="#62345B"/></g></g></svg>